<?xml version="1.0" encoding="UTF-8"?>
<svg width="141px" height="39px" viewBox="0 0 141 39" version="1.1" xmlns="http://www.w3.org/2000/svg" xmlns:xlink="http://www.w3.org/1999/xlink">
    <!-- Generator: sketchtool 52.2 (67145) - http://www.bohemiancoding.com/sketch -->
    <title>C0B28C4E-F418-400F-9A1F-05943DB758CE</title>
    <desc>Created with sketchtool.</desc>
    <g id="Symbols" stroke="none" stroke-width="1" fill="none" fill-rule="evenodd">
        <g id="Section/header">
            <g id="header" transform="translate(0.000000, -4.000000)">
                <g id="logo" transform="translate(0.000000, 4.000000)">
                    <path d="M8.98100321e-15,4.17212919 C8.69568119e-15,1.86792587 1.88870128,4.23275285e-16 4.21853239,0 L14.6195578,0 C26.6725075,0 35,8.41285714 35,19.3885714 C35,30.4757143 26.6725075,39 14.6195578,39 L4.21853239,39 C1.88870128,39 5.45858629e-15,37.1320741 0,34.8278708 L8.98100321e-15,4.17212919 Z" id="Combined-Shape" fill="#FFFFFF"></path>
                    <path d="M47,6.4976874 L47,17.5023126 C47,17.7668219 47.2439514,18 47.5668835,18 L51.4301215,18 C55.2976678,18 58,15.4403366 58,11.96 C58,8.52510206 55.3021012,6 51.4301215,6 L47.5668835,6 C47.2439514,6 47,6.23317814 47,6.4976874 Z" id="Combined-Shape-Copy-5" stroke="#FFFFFF" stroke-width="2"></path>
                    <path d="M53.38,34.14 C53.6600014,34.14 53.8899991,34.2266658 54.07,34.4 C54.2500009,34.5733342 54.34,34.7999986 54.34,35.08 C54.34,35.346668 54.2500009,35.5666658 54.07,35.74 C53.8899991,35.9133342 53.6600014,36 53.38,36 L46.62,36 C46.3399986,36 46.1100009,35.9066676 45.93,35.72 C45.7499991,35.5333324 45.66,35.306668 45.66,35.04 L45.66,22.96 C45.66,22.693332 45.7533324,22.4666676 45.94,22.28 C46.1266676,22.0933324 46.3666652,22 46.66,22 C46.926668,22 47.1566657,22.0933324 47.35,22.28 C47.5433343,22.4666676 47.64,22.693332 47.64,22.96 L47.64,34.14 L53.38,34.14 Z M64.52,25.38 C64.8000014,25.38 65.0299991,25.4699991 65.21,25.65 C65.3900009,25.8300009 65.48,26.0666652 65.48,26.36 L65.48,35.04 C65.48,35.306668 65.3900009,35.5333324 65.21,35.72 C65.0299991,35.9066676 64.8000014,36 64.52,36 C64.2399986,36 64.0133342,35.9100009 63.84,35.73 C63.6666658,35.5499991 63.58,35.3200014 63.58,35.04 L63.58,34.52 C63.2333316,34.986669 62.760003,35.3833317 62.16,35.71 C61.559997,36.0366683 60.9133368,36.2 60.22,36.2 C59.3133288,36.2 58.4900037,35.966669 57.75,35.5 C57.0099963,35.033331 56.4300021,34.3833375 56.01,33.55 C55.5899979,32.7166625 55.38,31.7800052 55.38,30.74 C55.38,29.6999948 55.5899979,28.7633375 56.01,27.93 C56.4300021,27.0966625 57.006663,26.446669 57.74,25.98 C58.473337,25.513331 59.2799956,25.28 60.16,25.28 C60.8666702,25.28 61.5233303,25.4266652 62.13,25.72 C62.7366697,26.0133348 63.2199982,26.3866644 63.58,26.84 L63.58,26.36 C63.58,26.0799986 63.6666658,25.8466676 63.84,25.66 C64.0133342,25.4733324 64.2399986,25.38 64.52,25.38 Z M60.44,34.44 C61.0666698,34.44 61.6233309,34.2800016 62.11,33.96 C62.5966691,33.6399984 62.9766653,33.2000028 63.25,32.64 C63.5233347,32.0799972 63.66,31.4466702 63.66,30.74 C63.66,30.0466632 63.5233347,29.4200028 63.25,28.86 C62.9766653,28.2999972 62.5966691,27.8566683 62.11,27.53 C61.6233309,27.2033317 61.0666698,27.04 60.44,27.04 C59.8133302,27.04 59.2566691,27.1999984 58.77,27.52 C58.2833309,27.8400016 57.9033347,28.2799972 57.63,28.84 C57.3566653,29.4000028 57.22,30.0333298 57.22,30.74 C57.22,31.4466702 57.3566653,32.0799972 57.63,32.64 C57.9033347,33.2000028 58.2833309,33.6399984 58.77,33.96 C59.2566691,34.2800016 59.8133302,34.44 60.44,34.44 Z M73.16,25.28 C74.0666712,25.28 74.886663,25.513331 75.62,25.98 C76.353337,26.446669 76.9299979,27.0933292 77.35,27.92 C77.7700021,28.7466708 77.98,29.6799948 77.98,30.72 C77.98,31.7600052 77.7700021,32.6999958 77.35,33.54 C76.9299979,34.3800042 76.353337,35.033331 75.62,35.5 C74.886663,35.966669 74.0800044,36.2 73.2,36.2 C72.5066632,36.2 71.860003,36.0466682 71.26,35.74 C70.659997,35.4333318 70.1733352,35.0533356 69.8,34.6 L69.8,35.18 C69.8,35.446668 69.7100009,35.6733324 69.53,35.86 C69.3499991,36.0466676 69.1200014,36.14 68.84,36.14 C68.573332,36.14 68.3500009,36.0500009 68.17,35.87 C67.9899991,35.6899991 67.9,35.4600014 67.9,35.18 L67.9,22.16 C67.9,21.8799986 67.9866658,21.6500009 68.16,21.47 C68.3333342,21.2899991 68.5599986,21.2 68.84,21.2 C69.1200014,21.2 69.3499991,21.2933324 69.53,21.48 C69.7100009,21.6666676 69.8,21.893332 69.8,22.16 L69.8,27.04 C70.1200016,26.5599976 70.5866636,26.1466684 71.2,25.8 C71.8133364,25.4533316 72.4666632,25.28 73.16,25.28 Z M72.94,34.44 C73.5533364,34.44 74.1066642,34.2766683 74.6,33.95 C75.0933358,33.6233317 75.4766653,33.1766695 75.75,32.61 C76.0233347,32.0433305 76.16,31.4133368 76.16,30.72 C76.16,30.0266632 76.0233347,29.4000028 75.75,28.84 C75.4766653,28.2799972 75.0933358,27.8400016 74.6,27.52 C74.1066642,27.1999984 73.5533364,27.04 72.94,27.04 C72.3133302,27.04 71.7533358,27.1999984 71.26,27.52 C70.7666642,27.8400016 70.3833347,28.2766639 70.11,28.83 C69.8366653,29.3833361 69.7,30.0133298 69.7,30.72 C69.7,31.4266702 69.8366653,32.0599972 70.11,32.62 C70.3833347,33.1800028 70.7666642,33.6233317 71.26,33.95 C71.7533358,34.2766683 72.3133302,34.44 72.94,34.44 Z M79.18,34.36 C79.0599994,34.1733324 79,33.9933342 79,33.82 C79,33.553332 79.1399986,33.3266676 79.42,33.14 C79.553334,33.0466662 79.7066658,33 79.88,33 C80.1200012,33 80.339999,33.099999 80.54,33.3 C80.940002,33.7533356 81.3699977,34.0933322 81.83,34.32 C82.2900023,34.5466678 82.8399968,34.66 83.48,34.66 C83.9866692,34.6466666 84.4333314,34.5300011 84.82,34.31 C85.2066686,34.0899989 85.4,33.7333358 85.4,33.24 C85.4,32.7866644 85.2033353,32.4400012 84.81,32.2 C84.4166647,31.9599988 83.8400038,31.740001 83.08,31.54 C82.3333296,31.339999 81.7133358,31.1300011 81.22,30.91 C80.7266642,30.6899989 80.3100017,30.3700021 79.97,29.95 C79.6299983,29.5299979 79.46,28.9800034 79.46,28.3 C79.46,27.699997 79.6299983,27.1733356 79.97,26.72 C80.3100017,26.2666644 80.7633305,25.9133346 81.33,25.66 C81.8966695,25.4066654 82.51333,25.28 83.18,25.28 C83.8200032,25.28 84.4566635,25.3999988 85.09,25.64 C85.7233365,25.8800012 86.239998,26.2466642 86.64,26.74 C86.8000008,26.9266676 86.88,27.119999 86.88,27.32 C86.88,27.5333344 86.7733344,27.739999 86.56,27.94 C86.426666,28.0600006 86.260001,28.12 86.06,28.12 C85.8199988,28.12 85.6266674,28.0400008 85.48,27.88 C85.1999986,27.5599984 84.8566687,27.3133342 84.45,27.14 C84.0433313,26.9666658 83.5933358,26.88 83.1,26.88 C82.5933308,26.88 82.1633351,26.9833323 81.81,27.19 C81.4566649,27.3966677 81.28,27.7466642 81.28,28.24 C81.2933334,28.706669 81.4966647,29.0533322 81.89,29.28 C82.2833353,29.5066678 82.8866626,29.7266656 83.7,29.94 C84.4066702,30.1266676 84.993331,30.3266656 85.46,30.54 C85.926669,30.7533344 86.3199984,31.0699979 86.64,31.49 C86.9600016,31.9100021 87.12,32.4599966 87.12,33.14 C87.12,33.7666698 86.9400018,34.3099977 86.58,34.77 C86.2199982,35.2300023 85.7500029,35.5833321 85.17,35.83 C84.5899971,36.0766679 83.9733366,36.2 83.32,36.2 C82.4799958,36.2 81.7033369,36.0533348 80.99,35.76 C80.2766631,35.4666652 79.6733358,35.0000032 79.18,34.36 Z" id="Labs" fill="#FFFFFF"></path>
                    <path d="M70.84,13.16 C70.8266666,13.4000012 70.7266676,13.6033325 70.54,13.77 C70.3533324,13.9366675 70.1333346,14.02 69.88,14.02 L62.84,14.02 C62.9333338,14.9933382 63.3033301,15.7733304 63.95,16.36 C64.5966699,16.9466696 65.386662,17.24 66.32,17.24 C66.9600032,17.24 67.479998,17.1466676 67.88,16.96 C68.280002,16.7733324 68.6333318,16.5333348 68.94,16.24 C69.140001,16.1199994 69.3333324,16.06 69.52,16.06 C69.7466678,16.06 69.9366659,16.1399992 70.09,16.3 C70.2433341,16.4600008 70.32,16.6466656 70.32,16.86 C70.32,17.1400014 70.186668,17.3933322 69.92,17.62 C69.5333314,18.0066686 69.0200032,18.333332 68.38,18.6 C67.7399968,18.866668 67.08667,19 66.42,19 C65.3399946,19 64.3900041,18.7733356 63.57,18.32 C62.7499959,17.8666644 62.1166689,17.2333374 61.67,16.42 C61.2233311,15.6066626 61,14.6866718 61,13.66 C61,12.5399944 61.2299977,11.5566709 61.69,10.71 C62.1500023,9.8633291 62.7566629,9.2133356 63.51,8.76 C64.2633371,8.3066644 65.073329,8.08 65.94,8.08 C66.7933376,8.08 67.5933296,8.2999978 68.34,8.74 C69.0866704,9.1800022 69.6866644,9.7866628 70.14,10.56 C70.5933356,11.3333372 70.8266666,12.1999952 70.84,13.16 Z M65.94,9.84 C65.1933296,9.84 64.5466694,10.0499979 64,10.47 C63.4533306,10.8900021 63.0933342,11.5399956 62.92,12.42 L68.82,12.42 L68.82,12.26 C68.753333,11.5533298 68.4366695,10.9733356 67.87,10.52 C67.3033305,10.0666644 66.6600036,9.84 65.94,9.84 Z M77.2,8.08 C78.2533386,8.08 79.1299965,8.246665 79.83,8.58 C80.5300035,8.913335 80.88,9.3399974 80.88,9.86 C80.88,10.0866678 80.8066674,10.2899991 80.66,10.47 C80.5133326,10.6500009 80.3266678,10.74 80.1,10.74 C79.9266658,10.74 79.7900005,10.7133336 79.69,10.66 C79.5899995,10.6066664 79.4533342,10.5200006 79.28,10.4 C79.1999996,10.3199996 79.0733342,10.2266672 78.9,10.12 C78.7399992,10.0399996 78.5133348,9.9733336 78.22,9.92 C77.9266652,9.8666664 77.6600012,9.84 77.42,9.84 C76.7266632,9.84 76.113336,9.9999984 75.58,10.32 C75.046664,10.6400016 74.6333348,11.0833305 74.34,11.65 C74.0466652,12.2166695 73.9,12.8466632 73.9,13.54 C73.9,14.2466702 74.0433319,14.8799972 74.33,15.44 C74.6166681,16.0000028 75.0199974,16.4399984 75.54,16.76 C76.0600026,17.0800016 76.65333,17.24 77.32,17.24 C78.0133368,17.24 78.5733312,17.1333344 79,16.92 C79.0933338,16.8666664 79.2199992,16.7800006 79.38,16.66 C79.513334,16.5533328 79.6299995,16.4733336 79.73,16.42 C79.8300005,16.3666664 79.9533326,16.34 80.1,16.34 C80.366668,16.34 80.5766659,16.4233325 80.73,16.59 C80.8833341,16.7566675 80.96,16.973332 80.96,17.24 C80.96,17.5200014 80.7833351,17.7966653 80.43,18.07 C80.0766649,18.3433347 79.6033363,18.5666658 79.01,18.74 C78.4166637,18.9133342 77.7800034,19 77.1,19 C76.0866616,19 75.1933372,18.7633357 74.42,18.29 C73.6466628,17.8166643 73.0500021,17.1633375 72.63,16.33 C72.2099979,15.4966625 72,14.5666718 72,13.54 C72,12.5133282 72.2199978,11.5833375 72.66,10.75 C73.1000022,9.9166625 73.7133294,9.2633357 74.5,8.79 C75.2866706,8.3166643 76.1866616,8.08 77.2,8.08 Z M91.72,13.16 C91.7066666,13.4000012 91.6066676,13.6033325 91.42,13.77 C91.2333324,13.9366675 91.0133346,14.02 90.76,14.02 L83.72,14.02 C83.8133338,14.9933382 84.1833301,15.7733304 84.83,16.36 C85.4766699,16.9466696 86.266662,17.24 87.2,17.24 C87.8400032,17.24 88.359998,17.1466676 88.76,16.96 C89.160002,16.7733324 89.5133318,16.5333348 89.82,16.24 C90.020001,16.1199994 90.2133324,16.06 90.4,16.06 C90.6266678,16.06 90.8166659,16.1399992 90.97,16.3 C91.1233341,16.4600008 91.2,16.6466656 91.2,16.86 C91.2,17.1400014 91.066668,17.3933322 90.8,17.62 C90.4133314,18.0066686 89.9000032,18.333332 89.26,18.6 C88.6199968,18.866668 87.96667,19 87.3,19 C86.2199946,19 85.2700041,18.7733356 84.45,18.32 C83.6299959,17.8666644 82.9966689,17.2333374 82.55,16.42 C82.1033311,15.6066626 81.88,14.6866718 81.88,13.66 C81.88,12.5399944 82.1099977,11.5566709 82.57,10.71 C83.0300023,9.8633291 83.6366629,9.2133356 84.39,8.76 C85.1433371,8.3066644 85.953329,8.08 86.82,8.08 C87.6733376,8.08 88.4733296,8.2999978 89.22,8.74 C89.9666704,9.1800022 90.5666644,9.7866628 91.02,10.56 C91.4733356,11.3333372 91.7066666,12.1999952 91.72,13.16 Z M86.82,9.84 C86.0733296,9.84 85.4266694,10.0499979 84.88,10.47 C84.3333306,10.8900021 83.9733342,11.5399956 83.8,12.42 L89.7,12.42 L89.7,12.26 C89.633333,11.5533298 89.3166695,10.9733356 88.75,10.52 C88.1833305,10.0666644 87.5400036,9.84 86.82,9.84 Z M105.54,8.14 C107.873345,8.14 109.04,9.5933188 109.04,12.5 L109.04,17.84 C109.04,18.1200014 108.953334,18.3499991 108.78,18.53 C108.606666,18.7100009 108.380001,18.8 108.1,18.8 C107.819999,18.8 107.590001,18.7066676 107.41,18.52 C107.229999,18.3333324 107.14,18.106668 107.14,17.84 L107.14,12.52 C107.14,10.7733246 106.406674,9.9 104.94,9.9 C104.419997,9.9 103.950002,10.0166655 103.53,10.25 C103.109998,10.4833345 102.783334,10.799998 102.55,11.2 C102.316665,11.600002 102.2,12.0399976 102.2,12.52 L102.2,17.84 C102.2,18.106668 102.110001,18.3333324 101.93,18.52 C101.749999,18.7066676 101.520001,18.8 101.24,18.8 C100.959999,18.8 100.733334,18.7100009 100.56,18.53 C100.386666,18.3499991 100.3,18.1200014 100.3,17.84 L100.3,12.5 C100.3,11.7133294 100.133335,11.0833357 99.8,10.61 C99.466665,10.1366643 98.9133372,9.9 98.14,9.9 C97.3533294,9.9 96.7033359,10.1499975 96.19,10.65 C95.6766641,11.1500025 95.42,11.766663 95.42,12.5 L95.42,17.84 C95.42,18.106668 95.3300009,18.3333324 95.15,18.52 C94.9699991,18.7066676 94.7400014,18.8 94.46,18.8 C94.1799986,18.8 93.9533342,18.7100009 93.78,18.53 C93.6066658,18.3499991 93.52,18.1200014 93.52,17.84 L93.52,9.28 C93.52,9.013332 93.6099991,8.7866676 93.79,8.6 C93.9700009,8.4133324 94.193332,8.32 94.46,8.32 C94.7400014,8.32 94.9699991,8.4133324 95.15,8.6 C95.3300009,8.7866676 95.42,9.013332 95.42,9.28 L95.42,9.98 C95.7666684,9.4599974 96.2299971,9.0233351 96.81,8.67 C97.3900029,8.3166649 98.0199966,8.14 98.7,8.14 C100.353342,8.14 101.426664,8.873326 101.92,10.34 C102.213335,9.7799972 102.699997,9.2733356 103.38,8.82 C104.060003,8.3666644 104.779996,8.14 105.54,8.14 Z M116.74,8.08 C117.646671,8.08 118.466663,8.313331 119.2,8.78 C119.933337,9.246669 120.509998,9.8933292 120.93,10.72 C121.350002,11.5466708 121.56,12.4799948 121.56,13.52 C121.56,14.5600052 121.350002,15.4999958 120.93,16.34 C120.509998,17.1800042 119.933337,17.833331 119.2,18.3 C118.466663,18.766669 117.660004,19 116.78,19 C116.086663,19 115.440003,18.8466682 114.84,18.54 C114.239997,18.2333318 113.753335,17.8533356 113.38,17.4 L113.38,17.98 C113.38,18.246668 113.290001,18.4733324 113.11,18.66 C112.929999,18.8466676 112.700001,18.94 112.42,18.94 C112.153332,18.94 111.930001,18.8500009 111.75,18.67 C111.569999,18.4899991 111.48,18.2600014 111.48,17.98 L111.48,4.96 C111.48,4.6799986 111.566666,4.4500009 111.74,4.27 C111.913334,4.0899991 112.139999,4 112.42,4 C112.700001,4 112.929999,4.0933324 113.11,4.28 C113.290001,4.4666676 113.38,4.693332 113.38,4.96 L113.38,9.84 C113.700002,9.3599976 114.166664,8.9466684 114.78,8.6 C115.393336,8.2533316 116.046663,8.08 116.74,8.08 Z M116.52,17.24 C117.133336,17.24 117.686664,17.0766683 118.18,16.75 C118.673336,16.4233317 119.056665,15.9766695 119.33,15.41 C119.603335,14.8433305 119.74,14.2133368 119.74,13.52 C119.74,12.8266632 119.603335,12.2000028 119.33,11.64 C119.056665,11.0799972 118.673336,10.6400016 118.18,10.32 C117.686664,9.9999984 117.133336,9.84 116.52,9.84 C115.89333,9.84 115.333336,9.9999984 114.84,10.32 C114.346664,10.6400016 113.963335,11.0766639 113.69,11.63 C113.416665,12.1833361 113.28,12.8133298 113.28,13.52 C113.28,14.2266702 113.416665,14.8599972 113.69,15.42 C113.963335,15.9800028 114.346664,16.4233317 114.84,16.75 C115.333336,17.0766683 115.89333,17.24 116.52,17.24 Z M132.56,13.16 C132.546667,13.4000012 132.446668,13.6033325 132.26,13.77 C132.073332,13.9366675 131.853335,14.02 131.6,14.02 L124.56,14.02 C124.653334,14.9933382 125.02333,15.7733304 125.67,16.36 C126.31667,16.9466696 127.106662,17.24 128.04,17.24 C128.680003,17.24 129.199998,17.1466676 129.6,16.96 C130.000002,16.7733324 130.353332,16.5333348 130.66,16.24 C130.860001,16.1199994 131.053332,16.06 131.24,16.06 C131.466668,16.06 131.656666,16.1399992 131.81,16.3 C131.963334,16.4600008 132.04,16.6466656 132.04,16.86 C132.04,17.1400014 131.906668,17.3933322 131.64,17.62 C131.253331,18.0066686 130.740003,18.333332 130.1,18.6 C129.459997,18.866668 128.80667,19 128.14,19 C127.059995,19 126.110004,18.7733356 125.29,18.32 C124.469996,17.8666644 123.836669,17.2333374 123.39,16.42 C122.943331,15.6066626 122.72,14.6866718 122.72,13.66 C122.72,12.5399944 122.949998,11.5566709 123.41,10.71 C123.870002,9.8633291 124.476663,9.2133356 125.23,8.76 C125.983337,8.3066644 126.793329,8.08 127.66,8.08 C128.513338,8.08 129.31333,8.2999978 130.06,8.74 C130.80667,9.1800022 131.406664,9.7866628 131.86,10.56 C132.313336,11.3333372 132.546667,12.1999952 132.56,13.16 Z M127.66,9.84 C126.91333,9.84 126.266669,10.0499979 125.72,10.47 C125.173331,10.8900021 124.813334,11.5399956 124.64,12.42 L130.54,12.42 L130.54,12.26 C130.473333,11.5533298 130.156669,10.9733356 129.59,10.52 C129.02333,10.0666644 128.380004,9.84 127.66,9.84 Z M139.58,8.08 C139.926668,8.08 140.226665,8.1699991 140.48,8.35 C140.733335,8.5300009 140.86,8.753332 140.86,9.02 C140.86,9.3400016 140.776667,9.5833325 140.61,9.75 C140.443332,9.9166675 140.240001,10 140,10 C139.879999,10 139.700001,9.9600004 139.46,9.88 C139.179999,9.7866662 138.960001,9.74 138.8,9.74 C138.386665,9.74 137.983335,9.8833319 137.59,10.17 C137.196665,10.4566681 136.876668,10.8499975 136.63,11.35 C136.383332,11.8500025 136.26,12.4066636 136.26,13.02 L136.26,17.84 C136.26,18.106668 136.170001,18.3333324 135.99,18.52 C135.809999,18.7066676 135.580001,18.8 135.3,18.8 C135.019999,18.8 134.793334,18.7100009 134.62,18.53 C134.446666,18.3499991 134.36,18.1200014 134.36,17.84 L134.36,9.28 C134.36,9.013332 134.449999,8.7866676 134.63,8.6 C134.810001,8.4133324 135.033332,8.32 135.3,8.32 C135.580001,8.32 135.809999,8.4133324 135.99,8.6 C136.170001,8.7866676 136.26,9.013332 136.26,9.28 L136.26,10.3 C136.553335,9.6466634 136.99333,9.1166687 137.58,8.71 C138.16667,8.3033313 138.83333,8.0933334 139.58,8.08 Z" id="December-.design-Copy-3" fill="#FFFFFF"></path>
                </g>
            </g>
        </g>
    </g>
</svg>